<?xml version="1.0" encoding="UTF-8"?>
<svg version="1.1" xmlns="http://www.w3.org/2000/svg" width="4652" height="2191">
<path d="M0 0 C1.18722656 1.10794922 1.18722656 1.10794922 2.3984375 2.23828125 C4.42452496 4.12574168 6.50396905 5.90870711 8.625 7.6875 C23.99943455 21.18625353 35.53283349 38.69066049 45.625 56.3125 C46.25486816 57.40739746 46.25486816 57.40739746 46.89746094 58.52441406 C77.9555212 113.197268 89.8691799 180.06963793 92.1875 242.375 C92.23140869 243.54643555 92.27531738 244.71787109 92.32055664 245.92480469 C94.9148271 320.74461299 81.91268531 395.37272213 58.625 466.3125 C58.22087891 467.55467285 57.81675781 468.7968457 57.40039062 470.07666016 C40.11845998 523.0187333 16.96649488 574.64621727 -10.95361328 622.83251953 C-12.68663911 625.85623585 -14.35337803 628.91287107 -16.01660156 631.9753418 C-22.9611871 644.72494056 -30.66626073 657.01513996 -38.375 669.3125 C-39.04370117 670.38016602 -39.71240234 671.44783203 -40.40136719 672.54785156 C-49.40791413 686.88345562 -58.78468082 700.91105676 -68.55566406 714.73632812 C-70.22905341 717.10584026 -71.89371952 719.4811469 -73.5546875 721.859375 C-88.41704242 743.10139455 -104.0725843 763.70253643 -120.484375 783.76953125 C-122.84817203 786.66006054 -125.18117817 789.5731944 -127.5 792.5 C-130.99256591 796.88225113 -134.60362071 801.15637506 -138.23657227 805.42211914 C-141.1857389 808.88941708 -144.07773126 812.39563094 -146.9375 815.9375 C-150.81079272 820.69770053 -154.88259992 825.24054784 -159.03515625 829.7578125 C-161.03334848 831.93947815 -162.99648889 834.14261309 -164.9375 836.375 C-168.27408642 840.21168368 -171.67044932 843.99202441 -175.078125 847.765625 C-176.53055841 849.3761464 -177.97900676 850.99027857 -179.421875 852.609375 C-189.71185749 864.13725012 -200.31254193 875.34115089 -211.29345703 886.21166992 C-214.99553281 889.88956525 -218.53160871 893.64076929 -221.91015625 897.62109375 C-225.61688174 901.90112612 -229.69711731 905.76614224 -234.00390625 909.43359375 C-238.86169103 913.66409869 -243.35851842 918.22352273 -247.875 922.8125 C-252.92646423 927.94504712 -257.99332276 932.95853155 -263.45898438 937.65039062 C-266.68235836 940.44661005 -269.77006721 943.3862538 -272.875 946.3125 C-277.96095671 951.07898863 -283.07090026 955.78841493 -288.375 960.3125 C-289.3960281 961.18727272 -290.41684071 962.06229699 -291.4375 962.9375 C-293.204655 964.45263589 -294.97226258 965.96722391 -296.74145508 967.47998047 C-300.57766988 970.76205839 -304.39350783 974.06633807 -308.19873047 977.38427734 C-313.60078563 982.09070664 -319.02863966 986.72803088 -324.66015625 991.16015625 C-327.51662647 993.42478228 -330.33745893 995.72939998 -333.15771484 998.03881836 C-339.87326139 1003.53114808 -346.64912176 1008.90048691 -353.64306641 1014.03710938 C-355.64635739 1015.51232676 -357.64144309 1016.99833544 -359.63671875 1018.484375 C-377.10838609 1031.46851305 -394.83173806 1043.90088818 -413.375 1055.3125 C-414.33535156 1055.91707031 -415.29570313 1056.52164062 -416.28515625 1057.14453125 C-418.375 1058.3125 -418.375 1058.3125 -420.375 1058.3125 C-420.045 1058.9725 -419.715 1059.6325 -419.375 1060.3125 C-419.17579227 1061.92769782 -419.02732851 1063.54924549 -418.90234375 1065.171875 C-412.33884235 1142.74319406 -395.53817614 1220.04979544 -380.375 1296.3125 C-380.23915245 1296.99607071 -380.1033049 1297.67964142 -379.96334076 1298.38392639 C-367.50963356 1360.99535321 -351.98485253 1423.00566668 -331.05413818 1483.3493042 C-330.40078775 1485.23795494 -329.75420824 1487.12894385 -329.10791016 1489.02001953 C-309.74853408 1545.60237303 -284.79439726 1604.64988328 -245.375 1650.3125 C-244.37146484 1651.48232422 -244.37146484 1651.48232422 -243.34765625 1652.67578125 C-221.68277608 1677.32613839 -193.88806048 1700.95880987 -159.71875 1704.1796875 C-158.9453125 1704.22351562 -158.171875 1704.26734375 -157.375 1704.3125 C-156.2715625 1704.37695312 -155.168125 1704.44140625 -154.03125 1704.5078125 C-120.05475015 1705.5271075 -90.12789009 1689.02100956 -64.375 1668.3125 C-63.57570068 1667.67199707 -63.57570068 1667.67199707 -62.76025391 1667.01855469 C-48.48061404 1655.46192865 -34.62436879 1642.37655201 -23.3515625 1627.84765625 C-21.49364856 1625.46467967 -19.54897676 1623.18060624 -17.56494141 1620.90234375 C10.74054019 1588.23213883 33.54494919 1549.42375575 53.625 1511.3125 C54.53845583 1509.59472934 55.4524974 1507.87727 56.3671875 1506.16015625 C60.8698603 1497.68394211 65.25997817 1489.15748913 69.515625 1480.5546875 C71.02456606 1477.50651114 72.56046647 1474.47336955 74.109375 1471.4453125 C93.88909492 1432.63460884 110.01657993 1391.97807659 125.63671875 1351.35546875 C130.7005112 1338.19837144 135.88725598 1325.1006744 141.25 1312.0625 C141.58049347 1311.25711792 141.91098694 1310.45173584 142.25149536 1309.62194824 C145.2989547 1302.20325062 148.3758671 1294.80554485 151.65234375 1287.484375 C152.0891748 1286.50243164 152.52600586 1285.52048828 152.97607422 1284.50878906 C153.7437706 1282.80011537 154.52622975 1281.09793531 155.32861328 1279.40527344 C155.65458496 1278.6837207 155.98055664 1277.96216797 156.31640625 1277.21875 C156.59685791 1276.62384766 156.87730957 1276.02894531 157.16625977 1275.41601562 C158.42816036 1269.62967421 155.89533724 1263.2925885 154.2890625 1257.7265625 C153.80162204 1255.99948945 153.31500797 1254.27218301 152.82910156 1252.54467773 C152.57197388 1251.63386444 152.31484619 1250.72305115 152.04992676 1249.78463745 C125.42552451 1155.0217957 111.42638044 1056.03048348 109.625 951.3125 C109.60856445 950.16370361 109.60856445 950.16370361 109.59179688 948.99169922 C108.25585969 851.88085362 117.68957826 754.20492927 293.625 293.3125 C294.12789551 292.57676758 294.63079102 291.84103516 295.14892578 291.08300781 C311.85704767 266.70141544 330.01575066 243.42612346 349.625 221.3125 C350.49640625 220.32765625 351.3678125 219.3428125 352.265625 218.328125 C359.22932775 210.63140091 366.54791431 203.28589622 373.875 195.9375 C374.39478424 195.41503693 374.91456848 194.89257385 375.45010376 194.35427856 C381.32733353 188.45409585 387.26656516 182.69895629 393.625 177.3125 C394.58921875 176.466875 395.5534375 175.62125 396.546875 174.75 C410.72302289 162.53188359 425.80957123 151.32059814 441.625 141.3125 C442.19395996 140.95027344 442.76291992 140.58804688 443.34912109 140.21484375 C478.42835818 118.05326516 517.3602938 102.56602427 558.625 97.3125 C559.34107422 97.21678711 560.05714844 97.12107422 560.79492188 97.02246094 C569.12486825 96.0385257 577.49893283 96.06887029 585.875 96.0625 C586.67390656 96.06182526 587.47281311 96.06115051 588.29592896 96.06045532 C601.28323977 96.07783128 613.8586769 96.75571225 626.625 99.3125 C627.90721436 99.56193359 627.90721436 99.56193359 629.21533203 99.81640625 C662.47626221 106.47969777 693.77996234 121.28132975 719.625 143.3125 C720.75628841 144.25937989 721.88781729 145.20597252 723.01953125 146.15234375 C732.61026036 154.22197988 741.59248721 162.66407155 749.625 172.3125 C750.05683594 172.83054199 750.48867187 173.34858398 750.93359375 173.88232422 C758.46459542 182.96697765 765.38896038 192.29203072 771.625 202.3125 C772.05103516 202.99699219 772.47707031 203.68148437 772.91601562 204.38671875 C801.59315265 251.03486164 817.04621808 304.08003404 822.625 358.3125 C822.7794458 359.74505127 822.7794458 359.74505127 822.93701172 361.20654297 C826.297472 393.57419914 825.77105902 426.95425705 822.625 459.3125 C822.56183594 459.96528931 822.49867188 460.61807861 822.43359375 461.29064941 C816.61059939 520.87286928 802.3802752 578.88284394 782.625 635.3125 C782.38761108 635.99094971 782.15022217 636.66939941 781.90563965 637.3684082 C775.49485299 655.64163926 768.41900524 673.58322203 760.625 691.3125 C759.86316406 693.05031738 759.86316406 693.05031738 759.0859375 694.82324219 C748.43115978 719.05236417 737.25771895 743.04370997 724.625 766.3125 C724.05974609 767.36066895 723.49449219 768.40883789 722.91210938 769.48876953 C713.72289586 786.49843674 704.05186062 803.13099066 693.8984375 819.58325195 C692.2096157 822.3368537 690.55623334 825.10969404 688.9140625 827.89135742 C682.24260308 839.17326933 675.22161782 850.14499444 667.84326172 860.97729492 C666.12051039 863.50659153 664.40533667 866.04089164 662.69140625 868.57617188 C655.46432428 879.24684332 648.10098628 889.81493081 640.625 900.3125 C639.98256348 901.21637451 639.34012695 902.12024902 638.67822266 903.05151367 C631.35696169 913.32146184 623.81875928 923.40851337 616.10791016 933.38867188 C614.74625376 935.15519351 613.39263852 936.92743774 612.04296875 938.703125 C605.88513057 946.78093534 599.50398923 954.6605312 593.07910156 962.52636719 C591.16255294 964.88054276 589.2667608 967.25087788 587.375 969.625 C580.75174872 977.91786253 573.99988155 986.08252366 567.06738281 994.11791992 C564.02243241 997.65503729 561.04872859 1001.2362291 558.125 1004.875 C553.7736385 1010.239042 549.11209824 1015.27366247 544.40234375 1020.3203125 C542.24422281 1022.63490262 540.1332619 1024.98145746 538.0625 1027.375 C534.71862681 1031.23957364 531.26405769 1034.99940054 527.8034668 1038.7590332 C524.9698307 1041.83928186 522.16156704 1044.93944184 519.375 1048.0625 C510.26266188 1058.20365048 500.95344623 1068.17196265 491.1875 1077.6875 C489.18102334 1079.74291512 487.30927404 1081.81578743 485.44116211 1083.99194336 C481.78597727 1088.18310068 477.94110363 1092.14127318 474.00390625 1096.06640625 C473.30031479 1096.77095444 472.59672333 1097.47550262 471.87181091 1098.20140076 C470.39485352 1099.67903367 468.91665258 1101.15542457 467.43725586 1102.63061523 C465.19334915 1104.86916481 462.95483296 1107.11300473 460.71679688 1109.35742188 C459.27115382 1110.80240404 457.82520055 1112.24707592 456.37890625 1113.69140625 C455.39102867 1114.68232018 455.39102867 1114.68232018 454.38319397 1115.69325256 C450.53953345 1119.51790746 446.5924217 1123.16101965 442.47166443 1126.6860199 C439.19901253 1129.56846194 436.17681629 1132.70009384 433.125 1135.8125 C428.65407716 1140.33197185 424.17200481 1144.73830628 419.3125 1148.84375 C417.49559567 1150.42512969 415.8128872 1152.09447196 414.125 1153.8125 C411.22500647 1156.7579073 408.18873569 1159.46713709 405.05859375 1162.1640625 C401.85904847 1164.98870119 398.74447136 1167.90000584 395.625 1170.8125 C391.31966115 1174.82855179 386.99532328 1178.80379246 382.53515625 1182.6484375 C380.26295489 1184.62790126 378.04040128 1186.6583317 375.8125 1188.6875 C372.37121795 1191.79778851 368.86178702 1194.77728312 365.25 1197.6875 C360.11580334 1201.83855262 355.27363067 1206.23246811 350.44921875 1210.734375 C347.57494166 1213.35819641 344.63182603 1215.84308305 341.625 1218.3125 C343.03622763 1226.658839 344.85514057 1234.87159504 346.828125 1243.1015625 C347.14553026 1244.43161492 347.46291247 1245.76167285 347.78027344 1247.09173584 C348.80472741 1251.37538448 349.83865382 1255.65671485 350.875 1259.9375 C351.14055946 1261.03545269 351.14055946 1261.03545269 351.41148376 1262.15558624 C361.07094902 1302.05856894 371.87518493 1341.60426719 385.625 1380.3125 C385.98951263 1381.33902679 385.98951263 1381.33902679 386.36138916 1382.3862915 C403.10744853 1429.38401097 423.53652096 1476.21196448 453.625 1516.3125 C454.08326172 1516.92625488 454.54152344 1517.54000977 455.01367188 1518.17236328 C461.29464874 1526.52695343 468.04660494 1534.34383779 475.27294922 1541.89306641 C476.45835841 1543.13755342 477.6235004 1544.40128072 478.78515625 1545.66796875 C498.6893734 1566.72271868 529.01022351 1584.65507748 558.46728516 1586.48950195 C603.0297665 1587.41619481 639.88122723 1570.72496241 673.9921875 1542.65283203 C675.54550416 1541.377756 677.11609415 1540.12380888 678.6875 1538.87109375 C687.34207514 1531.82908047 695.17983144 1523.94147432 703.0625 1516.0625 C703.63093628 1515.49506073 704.19937256 1514.92762146 704.78503418 1514.34298706 C710.94634667 1508.18045112 717.00131069 1501.97669149 722.625 1495.3125 C723.50180554 1494.30269142 724.37936646 1493.29353806 725.2578125 1492.28515625 C732.12530627 1484.26590412 738.60457925 1475.99579094 744.94238281 1467.55273438 C746.05036942 1466.07756242 747.16161947 1464.60483506 748.27636719 1463.13476562 C769.59353829 1435.0056692 788.12511831 1404.92786414 805.625 1374.3125 C806.21023437 1373.29446289 806.79546875 1372.27642578 807.3984375 1371.22753906 C825.39944569 1339.77490412 841.79184205 1307.13504756 856.34985352 1273.95043945 C859.35277326 1267.1322151 862.53220697 1260.49236243 866.0625 1253.9296875 C876.49750283 1234.33593921 881.54424026 1216.46061355 884.57809448 1194.50469971 C885.69379577 1186.50483959 887.24679805 1178.63238816 889 1170.75 C889.1437204 1170.10129944 889.2874408 1169.45259888 889.43551636 1168.78424072 C900.50300645 1119.28833033 917.20718605 1046.48616799 961.625 1016.3125 C975.59680224 1008.02625656 991.41921614 1003.86964952 1007.625 1003.3125 C1008.60082031 1003.27253906 1009.57664062 1003.23257812 1010.58203125 1003.19140625 C1034.20762615 1002.69617183 1058.01862159 1008.17207493 1076.2265625 1024.00390625 C1086.67550125 1034.06143524 1094.4175864 1048.07271235 1094.8132782 1062.76879883 C1094.93773763 1075.35754182 1093.97131383 1087.58505006 1092.39453125 1100.0625 C1092.16011133 1101.99561315 1091.92696494 1103.9288811 1091.69499207 1105.86228943 C1091.20594794 1109.92331252 1090.71018183 1113.98342752 1090.20874023 1118.04293823 C1089.03345955 1127.56958447 1087.90163155 1137.10143446 1086.76906967 1146.63323784 C1086.51959904 1148.73265151 1086.26977514 1150.83202324 1086.0195961 1152.93135262 C1081.25107049 1192.96520065 1077.76852349 1233.05090342 1075.625 1273.3125 C1075.56859344 1274.35138367 1075.56859344 1274.35138367 1075.51104736 1275.41125488 C1070.9855625 1348.56175638 1070.9855625 1348.56175638 1082.625 1420.3125 C1089.51798058 1412.98590459 1095.8860175 1405.39906376 1102.00585938 1397.42041016 C1103.80343908 1395.08019556 1105.61296884 1392.74943779 1107.421875 1390.41796875 C1115.13882552 1380.42605748 1122.53426963 1370.29258734 1129.5625 1359.8046875 C1131.8123876 1356.46179457 1134.15204976 1353.19843794 1136.53515625 1349.94921875 C1140.53359813 1344.48205823 1144.32367928 1338.89694809 1148.0625 1333.25 C1148.74425293 1332.22342285 1149.42600586 1331.1968457 1150.12841797 1330.13916016 C1168.45651132 1302.49863989 1186.33778356 1274.61580129 1203.625 1246.3125 C1203.97173767 1245.74513123 1204.31847534 1245.17776245 1204.67572021 1244.59320068 C1215.47499687 1226.92057915 1226.12171131 1209.16295668 1236.625 1191.3125 C1237.22940918 1190.28672852 1237.83381836 1189.26095703 1238.45654297 1188.20410156 C1246.74954404 1174.11618214 1254.84618295 1159.92733985 1262.78027344 1145.63427734 C1264.37232081 1142.76749643 1265.96860081 1139.90311691 1267.56614685 1137.03939819 C1279.60900395 1115.43878481 1291.5823056 1093.85136066 1301.25 1071.0625 C1308.86171284 1053.12953862 1316.57594566 1035.02597454 1329.625 1020.3125 C1330.30046875 1019.55066406 1330.9759375 1018.78882813 1331.671875 1018.00390625 C1346.0485042 1002.79343256 1366.75608203 995.09541822 1387.4387207 994.13549805 C1388.80931074 994.10937064 1390.18002409 994.08920182 1391.55078125 994.07421875 C1392.2916246 994.06433426 1393.03246796 994.05444977 1393.79576111 994.04426575 C1417.71722469 993.79055966 1440.04253791 994.49016257 1459.25 1010.6875 C1468.50703191 1019.78895154 1472.6138936 1030.45652329 1473 1043.375 C1472.45984617 1062.71666213 1469.12246788 1081.78430548 1465.875 1100.8125 C1448.4306975 1203.1487681 1432.54275115 1316.2439191 1480.421875 1469.88671875 C1485.89201953 1477.20577213 1493.28664191 1484.63159554 1502.625 1486.3125 C1519.57736327 1487.93313564 1534.34844722 1480.34348628 1547.25 1470 C1549.05609243 1468.45419736 1550.8473511 1466.89092963 1552.625 1465.3125 C1553.11742188 1464.8803418 1553.60984375 1464.44818359 1554.1171875 1464.00292969 C1566.60825073 1453.00984295 1576.7173564 1440.61856852 1586.625 1427.3125 C1587.0698877 1426.71953125 1587.51477539 1426.1265625 1587.97314453 1425.515625 C1636.78919891 1360.19863782 1664.81053682 1279.43219413 1696.875 1178.1875 C1697.24584717 1176.9612793 1697.61669434 1175.73505859 1697.9987793 1174.47167969 C1698.33433838 1173.34407227 1698.66989746 1172.21646484 1699.015625 1171.0546875 C1699.30469727 1170.0838623 1699.59376953 1169.11303711 1699.89160156 1168.11279297 C1701.64756875 1161.76675066 1701.64756875 1161.76675066 1700.55078125 1155.45703125 C1700.29707764 1154.7614209 1700.04337402 1154.06581055 1699.78198242 1153.34912109 C1699.50330322 1152.61516113 1699.22462402 1151.88120117 1698.9375 1151.125 C1696.58979744 1144.54869897 1694.71710941 1138.02913245 1693.3125 1131.1875 C1693.07430542 1130.03471558 1693.07430542 1130.03471558 1692.83129883 1128.85864258 C1684.92718648 1089.00820025 1692.99478442 1047.43272986 1710.625 1011.3125 C1711.26843303 1009.95973237 1711.91166333 1008.60686828 1712.5546875 1007.25390625 C1719.44364579 992.95862335 1727.57980713 979.34517294 1736.625 966.3125 C1736.99560547 965.77061035 1737.36621094 965.2287207 1737.74804688 964.67041016 C1750.29763812 946.35239199 1765.075311 929.96773554 1782.625 916.3125 C1784.06359375 915.14847656 1784.06359375 915.14847656 1785.53125 913.9609375 C1819.5233241 886.92178765 1860.83480595 869.17196123 1903.625 862.3125 C1904.81996094 862.11785156 1906.01492187 861.92320312 1907.24609375 861.72265625 C1935.88779489 858.36838369 1971.61663026 860.11918727 1995.30078125 878.375 C2003.68159794 885.52663024 2009.97195911 893.14948887 2010.875 904.4375 C2011.67584272 927.26151766 1996.91888258 943.58230091 1982.21459961 959.40185547 C1980.6859531 961.03988157 1979.15558699 962.6762872 1977.625 964.3125 C1966.08997773 976.67117752 1955.57240142 989.64700937 1945.625 1003.3125 C1945.20105957 1003.88887207 1944.77711914 1004.46524414 1944.34033203 1005.05908203 C1928.16153325 1027.27640063 1916.21100921 1053.14921467 1911.625 1080.3125 C1911.44195313 1081.31796875 1911.25890625 1082.3234375 1911.0703125 1083.359375 C1909.25563212 1099.46864293 1909.52381274 1116.57470056 1913.625 1132.3125 C1913.82367676 1133.08964355 1914.02235352 1133.86678711 1914.22705078 1134.66748047 C1917.49121838 1147.11043844 1921.97187002 1158.76986356 1927.625 1170.3125 C1928.18960938 1171.47048096 1928.18960938 1171.47048096 1928.765625 1172.65185547 C1945.45659157 1206.48583563 1970.27902662 1236.62289839 1995.82373047 1264.18310547 C1998.90964954 1267.51256071 2001.8955265 1270.90725441 2004.796875 1274.3984375 C2007.53769723 1277.2681018 2010.5834103 1279.76875838 2013.625 1282.3125 C2014.24955078 1281.6827124 2014.87410156 1281.0529248 2015.51757812 1280.40405273 C2017.87128314 1278.03314355 2020.22734573 1275.664626 2022.58496094 1273.29760742 C2023.59826152 1272.27932708 2024.61065712 1271.26014526 2025.62207031 1270.23999023 C2027.08932999 1268.76038234 2028.55998765 1267.28422043 2030.03125 1265.80859375 C2030.91103516 1264.92357178 2031.79082031 1264.0385498 2032.69726562 1263.12670898 C2034.88353087 1260.97880517 2037.15798493 1258.96297171 2039.47851562 1256.96118164 C2043.69797365 1253.3005673 2047.6381282 1249.40995201 2051.5625 1245.4375 C2052.28687256 1244.70934082 2053.01124512 1243.98118164 2053.75756836 1243.23095703 C2056.04918303 1240.92724354 2058.33750652 1238.62030526 2060.625 1236.3125 C2063.64285081 1233.26785221 2066.66413416 1230.22667033 2069.6875 1227.1875 C2070.36482178 1226.50187988 2071.04214355 1225.81625977 2071.73999023 1225.10986328 C2075.58905592 1221.24136505 2079.55365362 1217.59210887 2083.68481445 1214.02783203 C2086.82027596 1211.2557479 2089.74996794 1208.29136054 2092.6875 1205.3125 C2093.32308838 1204.673125 2093.95867676 1204.03375 2094.61352539 1203.375 C2096.6198365 1201.35661603 2098.62284001 1199.33500124 2100.625 1197.3125 C2115.6209212 1182.16422546 2115.6209212 1182.16422546 2121.68359375 1177.03125 C2126.21068551 1173.02336192 2130.38113777 1168.61694762 2134.625 1164.3125 C2140.19450411 1158.66348563 2145.7601524 1153.0823289 2151.79296875 1147.921875 C2154.88795593 1145.20303764 2157.74457177 1142.25487292 2160.625 1139.3125 C2164.85316505 1135.03503996 2169.10920636 1130.90278693 2173.703125 1127.015625 C2176.93806212 1124.14889211 2179.92330009 1121.03316478 2182.9375 1117.9375 C2185.71004728 1115.22943056 2188.59210035 1112.70153544 2191.51953125 1110.1640625 C2194.96770985 1107.13171249 2198.29173208 1103.96999012 2201.625 1100.8125 C2206.85788878 1095.85556434 2212.17733721 1091.03229135 2217.625 1086.3125 C2218.64613176 1085.41179655 2219.66698877 1084.51078147 2220.6875 1083.609375 C2226.55864285 1078.51896923 2232.56272069 1073.76050675 2238.9375 1069.3125 C2239.58267578 1068.85584961 2240.22785156 1068.39919922 2240.89257812 1067.92871094 C2249.45718684 1062.07725104 2257.21342375 1060.15282627 2267.625 1061.3125 C2270.91341204 1062.25411578 2273.69921649 1063.55457125 2276.625 1065.3125 C2277.5325 1065.84875 2278.44 1066.385 2279.375 1066.9375 C2285.57041618 1073.47710596 2288.04457014 1081.94904981 2287.8984375 1090.8046875 C2286.19868316 1106.39386303 2274.51536735 1120.93057267 2265.625 1133.3125 C2264.80588135 1134.45477051 2264.80588135 1134.45477051 2263.97021484 1135.62011719 C2256.32102036 1146.24023345 2248.34993604 1156.53438162 2240.01464844 1166.62304688 C2238.11058405 1168.93789676 2236.24108867 1171.27948144 2234.375 1173.625 C2227.07874134 1182.76436366 2219.60386339 1191.74407958 2212.03222656 1200.65527344 C2210.18413237 1202.8316897 2208.33992479 1205.0113781 2206.49609375 1207.19140625 C2205.12025954 1208.81810482 2203.74372274 1210.44420714 2202.3671875 1212.0703125 C2200.55743688 1214.20887516 2198.75033339 1216.34963165 2196.9453125 1218.4921875 C2188.39490097 1228.63434836 2179.80219539 1238.74880611 2170.875 1248.5625 C2167.96204267 1251.76990789 2165.20279499 1255.05147059 2162.5 1258.4375 C2157.97254877 1264.04101799 2153.08149907 1269.26190933 2148.11669922 1274.47900391 C2144.3979277 1278.39085601 2140.78800821 1282.37195825 2137.25048828 1286.44848633 C2135.00137687 1289.02763406 2132.69321583 1291.54517361 2130.375 1294.0625 C2129.42699776 1295.09236915 2128.47908376 1296.12231954 2127.53125 1297.15234375 C2127.05300781 1297.6716748 2126.57476563 1298.19100586 2126.08203125 1298.72607422 C2124.62306655 1300.31460515 2123.17004223 1301.90836496 2121.71875 1303.50390625 C2117.3167402 1308.33830992 2112.88889738 1313.11242633 2108.21484375 1317.6875 C2106.52823286 1319.41140695 2104.98931976 1321.21669041 2103.4375 1323.0625 C2100.07756027 1326.96003008 2096.36964771 1330.3671824 2092.54272461 1333.80126953 C2087.56998955 1338.29072681 2082.85800638 1343.02116696 2078.16967773 1347.80517578 C2073.82750911 1352.21124545 2073.82750911 1352.21124545 2071.625 1353.3125 C2073.31651445 1359.36526858 2076.31248335 1364.67153662 2079.25 1370.1875 C2080.34715902 1372.27301427 2081.44351217 1374.3589527 2082.5390625 1376.4453125 C2083.07176758 1377.45754883 2083.60447266 1378.46978516 2084.15332031 1379.51269531 C2109.02860447 1426.83680923 2127.23943492 1477.54251322 2135.5 1530.4375 C2135.60372925 1531.10109528 2135.7074585 1531.76469055 2135.81433105 1532.44839478 C2138.01190223 1546.69550726 2138.86422141 1560.67217352 2138.875 1575.0625 C2138.87601212 1576.28504486 2138.87601212 1576.28504486 2138.87704468 1577.5322876 C2138.85900979 1591.31532413 2138.08247013 1604.7238512 2135.625 1618.3125 C2135.45871094 1619.25125977 2135.29242187 1620.19001953 2135.12109375 1621.15722656 C2126.72667443 1667.03117364 2105.41835035 1706.57648592 2073.625 1740.3125 C2072.93535156 1741.0446875 2072.24570312 1741.776875 2071.53515625 1742.53125 C2042.1947539 1772.7716647 1999.88384004 1792.7744084 1957.68505859 1793.71459961 C1944.23410043 1793.83560649 1931.58259723 1793.00855135 1918.625 1789.3125 C1916.77841797 1788.7865625 1916.77841797 1788.7865625 1914.89453125 1788.25 C1899.43715331 1783.21980243 1885.7992383 1774.97853237 1873.625 1764.3125 C1872.80644531 1763.59578125 1871.98789062 1762.8790625 1871.14453125 1762.140625 C1845.21406917 1737.72468549 1834.51148461 1701.0800141 1833.40234375 1666.41796875 C1832.67047807 1629.73391068 1839.81095642 1594.21640672 1850.625 1559.3125 C1851.08447021 1557.81058105 1851.08447021 1557.81058105 1851.55322266 1556.27832031 C1866.60842141 1507.52582905 1890.01609013 1460.98905467 1915.69874573 1417.05355835 C1917.1048239 1414.64569549 1918.50675147 1412.23542603 1919.90866089 1409.82513428 C1920.91775491 1408.09632781 1921.93548043 1406.37256875 1922.95336914 1404.64892578 C1923.56301514 1403.60462402 1924.17266113 1402.56032227 1924.80078125 1401.484375 C1925.34645752 1400.5572168 1925.89213379 1399.63005859 1926.4543457 1398.67480469 C1927.84701263 1396.30390266 1927.84701263 1396.30390266 1927.625 1393.3125 C1925.55232619 1391.0209978 1925.55232619 1391.0209978 1922.8125 1388.6875 C1922.31621094 1388.24728516 1921.81992187 1387.80707031 1921.30859375 1387.35351562 C1917.09592596 1383.64615521 1912.74198434 1380.11711237 1908.375 1376.59375 C1904.58594593 1373.45055742 1900.99230648 1370.11091405 1897.37109375 1366.77734375 C1894.70624834 1364.38542703 1891.97668175 1362.11995116 1889.1875 1359.875 C1884.65183557 1356.21678985 1880.3679883 1352.36507035 1876.10571289 1348.39868164 C1872.87306025 1345.40823 1869.55803234 1342.57470993 1866.125 1339.8125 C1861.60722187 1336.17750611 1857.34681484 1332.3453971 1853.10546875 1328.3984375 C1849.87288253 1325.40808642 1846.55794134 1322.57463671 1843.125 1319.8125 C1838.60561455 1316.17621286 1834.34351914 1312.34287427 1830.10107422 1308.39404297 C1826.91175885 1305.44318108 1823.64135132 1302.65257012 1820.25 1299.9375 C1814.52184546 1295.32844946 1809.19776809 1290.33943288 1803.83984375 1285.3125 C1801.43265406 1283.0560636 1798.995892 1280.8461093 1796.5 1278.6875 C1791.09993854 1274.01502576 1785.86138884 1269.16648731 1780.625 1264.3125 C1779.92503906 1263.66442383 1779.22507813 1263.01634766 1778.50390625 1262.34863281 C1776.22750968 1260.23694951 1773.95680505 1258.11930055 1771.6875 1256 C1770.96570557 1255.3304126 1770.24391113 1254.6608252 1769.50024414 1253.97094727 C1768.81051514 1253.32440186 1768.12078613 1252.67785645 1767.41015625 1252.01171875 C1766.80051025 1251.44283936 1766.19086426 1250.87395996 1765.56274414 1250.2878418 C1763.07838945 1247.75528367 1760.87035329 1245.05918878 1758.625 1242.3125 C1758.43058319 1242.83834686 1758.23616638 1243.36419373 1758.03585815 1243.90597534 C1748.04350704 1270.91422101 1737.89947615 1297.81094366 1726.625 1324.3125 C1726.07483226 1325.61001013 1725.52470208 1326.90753618 1724.97460938 1328.20507812 C1717.2402918 1346.41842573 1709.08203965 1364.4227059 1700.625 1382.3125 C1699.81264893 1384.03992432 1699.81264893 1384.03992432 1698.98388672 1385.80224609 C1692.10321917 1400.41165872 1684.89060185 1414.75040583 1677.00097656 1428.84130859 C1675.70875342 1431.16208266 1674.43978298 1433.4936938 1673.1796875 1435.83203125 C1663.515368 1453.68105159 1652.81870118 1471.07475988 1640.625 1487.3125 C1640.22506836 1487.85374512 1639.82513672 1488.39499023 1639.41308594 1488.95263672 C1634.07905754 1496.16814545 1628.42335203 1502.92824722 1622.28125 1509.46875 C1619.82076155 1512.10291999 1617.4382524 1514.78963459 1615.0625 1517.5 C1586.92431421 1548.72591591 1543.93992149 1570.19376014 1501.88549805 1572.51928711 C1498.04616526 1572.61485465 1494.21546712 1572.64177897 1490.375 1572.625 C1489.69802063 1572.62284485 1489.02104126 1572.6206897 1488.32354736 1572.61846924 C1477.48814361 1572.56333129 1467.15173914 1571.94418478 1456.625 1569.3125 C1455.79355469 1569.10850586 1454.96210938 1568.90451172 1454.10546875 1568.69433594 C1442.08394505 1565.67135395 1430.74623947 1561.77940884 1419.625 1556.3125 C1418.88040527 1555.95172363 1418.13581055 1555.59094727 1417.36865234 1555.21923828 C1400.1085568 1546.77691684 1384.94492863 1536.07463113 1370.625 1523.3125 C1370.09503418 1522.84424805 1369.56506836 1522.37599609 1369.01904297 1521.89355469 C1362.78946983 1516.3732987 1356.94954755 1510.72485834 1351.625 1504.3125 C1350.43197266 1502.95125 1350.43197266 1502.95125 1349.21484375 1501.5625 C1337.07733911 1487.66687325 1326.77174734 1472.74317494 1317.87744141 1456.58691406 C1316.69678838 1454.44286658 1315.49609503 1452.31117411 1314.29296875 1450.1796875 C1288.69630563 1404.11792512 1278.97855605 1352.0998679 1273.625 1300.3125 C1273.35906036 1300.84659988 1273.09312073 1301.38069977 1272.81912231 1301.9309845 C1269.99786835 1307.59597868 1267.17356789 1313.259447 1264.34765625 1318.92211914 C1263.29970666 1321.02298264 1262.25248106 1323.12420746 1261.20605469 1325.22583008 C1255.64149624 1336.40033925 1250.03163462 1347.54189883 1244.18516541 1358.57191467 C1241.46863139 1363.69794091 1238.7994763 1368.84544737 1236.16796875 1374.015625 C1228.13963136 1389.77739189 1219.99044125 1405.40805128 1211.11767578 1420.71679688 C1209.60594388 1423.34563783 1208.1255052 1425.99000084 1206.65234375 1428.640625 C1182.33148392 1472.2331836 1149.81921027 1519.22303963 1099.69921875 1534.56640625 C1056.46757392 1546.53349077 1009.38691791 1540.57282533 970.27734375 1519.00390625 C964.71591901 1515.83909309 959.56774533 1512.38075962 954.625 1508.3125 C954.1103418 1507.89500488 953.59568359 1507.47750977 953.06542969 1507.04736328 C918.31455518 1478.78046858 900.00933568 1441.35506031 886.625 1399.3125 C886.18969971 1400.16908203 886.18969971 1400.16908203 885.74560547 1401.04296875 C877.88461624 1416.45259001 869.48857803 1431.45935172 860.625 1446.3125 C860.07650391 1447.2396582 859.52800781 1448.16681641 858.96289062 1449.12207031 C851.77120031 1461.26717696 844.20058952 1473.13167463 836.375 1484.875 C835.96288269 1485.49417297 835.55076538 1486.11334595 835.12615967 1486.75128174 C827.29541356 1498.49525035 819.18634452 1510.04059077 810.6875 1521.3125 C810.18935791 1521.97419189 809.69121582 1522.63588379 809.17797852 1523.31762695 C798.56054232 1537.37411263 787.53177566 1551.00769248 775.67578125 1564.04296875 C773.77271912 1566.14902418 771.91346179 1568.28570469 770.0625 1570.4375 C767.0556373 1573.89573932 763.85317411 1577.1055013 760.5859375 1580.31640625 C758.70838879 1582.22761619 756.97690586 1584.20284635 755.25 1586.25 C751.81376702 1590.25109319 747.98278449 1593.68055801 744.02734375 1597.16015625 C741.99304531 1598.98275534 740.08065472 1600.84670625 738.1875 1602.8125 C734.55828546 1606.50107085 730.58517858 1609.70281383 726.5546875 1612.94140625 C723.6803283 1615.26772096 720.87351404 1617.66028994 718.0625 1620.0625 C662.84248934 1666.07917555 592.33926859 1694.6866708 519.8125 1688.5625 C472.76673265 1684.07605992 427.17585842 1666.61120432 388.625 1639.3125 C387.95404297 1638.84231445 387.28308594 1638.37212891 386.59179688 1637.88769531 C377.73874814 1631.67197212 369.1115439 1625.31828202 360.95751953 1618.20483398 C358.8038506 1616.32724376 356.63396462 1614.47277034 354.44213867 1612.63989258 C346.39042395 1605.88349257 338.80835169 1598.78239401 331.41772461 1591.31103516 C329.66908776 1589.5438929 327.9123301 1587.78513385 326.15429688 1586.02734375 C320.43568616 1580.29097431 314.84613348 1574.51164004 309.625 1568.3125 C308.74828983 1567.30260862 307.87073141 1566.29345279 306.9921875 1565.28515625 C300.09756364 1557.234224 293.6146633 1548.91664289 287.23925781 1540.45019531 C285.68691687 1538.39449396 284.12260297 1536.34852329 282.5546875 1534.3046875 C275.13438728 1524.58943663 268.27198113 1514.57002523 261.625 1504.3125 C261.14595215 1503.57725098 260.6669043 1502.84200195 260.17333984 1502.08447266 C245.5741784 1479.61016287 232.73145736 1456.20672734 220.625 1432.3125 C220.11952637 1431.3220166 219.61405273 1430.3315332 219.09326172 1429.31103516 C212.54457754 1416.47648298 206.43905348 1403.49493071 200.625 1390.3125 C200.21886475 1391.34093018 199.81272949 1392.36936035 199.39428711 1393.42895508 C179.78382875 1443.0268915 159.31505674 1492.73259831 134.00146484 1539.7421875 C132.48148203 1542.58049525 130.98468336 1545.43044343 129.48828125 1548.28125 C121.38344612 1563.6347509 112.63655332 1578.47903191 103.51416016 1593.24072266 C101.88944654 1595.88250951 100.28622655 1598.53468951 98.69921875 1601.19921875 C84.09770361 1625.65941118 67.4898721 1649.12570849 49.625 1671.3125 C48.89023438 1672.2303125 48.15546875 1673.148125 47.3984375 1674.09375 C34.06302857 1690.58116468 19.83668647 1706.17130357 4.875 1721.1875 C3.98748047 1722.07969238 3.09996094 1722.97188477 2.18554688 1723.89111328 C-2.84114386 1728.90556675 -7.97134936 1733.7083464 -13.375 1738.3125 C-14.35082031 1739.16972656 -15.32664062 1740.02695313 -16.33203125 1740.91015625 C-35.94190359 1757.83741952 -57.43961523 1772.29804782 -80.375 1784.3125 C-81.15230469 1784.7235498 -81.92960937 1785.13459961 -82.73046875 1785.55810547 C-136.06309048 1813.40982738 -198.86952187 1818.96192557 -256.375 1801.52734375 C-290.06662662 1790.9170358 -320.13580712 1773.68755129 -347.375 1751.3125 C-347.90222656 1750.88291992 -348.42945313 1750.45333984 -348.97265625 1750.01074219 C-367.28186211 1735.04172929 -384.60563525 1718.43047085 -399.32421875 1699.88671875 C-401.51127562 1697.14144164 -403.78347769 1694.48179108 -406.0625 1691.8125 C-430.57214856 1662.33315311 -450.94741731 1628.89011064 -468.88916016 1595.10791016 C-469.89154706 1593.22205244 -470.89916014 1591.33896456 -471.91162109 1589.45849609 C-492.80628627 1550.62810525 -509.21160238 1509.66033214 -524.375 1468.3125 C-524.67043701 1469.02865479 -524.96587402 1469.74480957 -525.27026367 1470.48266602 C-528.10181255 1477.34345518 -530.94024807 1484.20133717 -533.78460693 1491.05682373 C-535.17186037 1494.40225698 -536.55583987 1497.74893408 -537.92919922 1501.10009766 C-555.74511185 1544.55565866 -575.37592075 1587.89142806 -599.375 1628.3125 C-600.20692871 1629.72692383 -600.20692871 1629.72692383 -601.05566406 1631.16992188 C-632.21125208 1684.00277817 -673.35710052 1732.91923111 -734.76318359 1749.64697266 C-778.88490319 1760.8898038 -823.13082055 1752.91988192 -862.27099609 1730.56445312 C-885.77787079 1716.57707166 -907.69844252 1697.02077741 -924.375 1675.3125 C-924.79072266 1674.77318848 -925.20644531 1674.23387695 -925.63476562 1673.67822266 C-944.85630078 1648.58344065 -959.51788636 1620.97315003 -970.375 1591.3125 C-970.73432617 1590.33490723 -971.09365234 1589.35731445 -971.46386719 1588.35009766 C-982.79866921 1557.06708876 -989.25130611 1524.11251033 -992.015625 1490.98828125 C-992.28328108 1488.25062509 -992.66719216 1485.93638275 -993.375 1483.3125 C-993.75084229 1484.07203979 -993.75084229 1484.07203979 -994.13427734 1484.84692383 C-998.63593945 1493.93089006 -1003.16796765 1502.99081651 -1007.9375 1511.9375 C-1012.74972465 1520.979873 -1017.31027421 1530.1437112 -1021.875 1539.3125 C-1027.49681612 1550.59718627 -1033.14270786 1561.85879142 -1039.11328125 1572.96435547 C-1040.02000613 1574.65183224 -1040.92323904 1576.34118706 -1041.82421875 1578.03173828 C-1057.03068691 1606.5630178 -1072.73530734 1635.24468981 -1092.98193359 1660.56103516 C-1094.18202589 1662.06987886 -1095.35363238 1663.60130002 -1096.51953125 1665.13671875 C-1118.73549695 1693.75018147 -1149.1124837 1715.54436608 -1185.51953125 1720.78125 C-1230.82675976 1726.24621194 -1276.90099531 1717.64875326 -1313.39501953 1689.34936523 C-1362.95800342 1650.03447689 -1382.69144412 1587.6866804 -1389.796875 1526.91796875 C-1390.92542578 1516.31179671 -1391.5369033 1505.77931246 -1391.578125 1495.11328125 C-1391.58513931 1493.89169815 -1391.59215363 1492.67011505 -1391.59938049 1491.41151428 C-1391.61680705 1487.48265914 -1391.623816 1483.55388555 -1391.625 1479.625 C-1391.62544186 1478.95452888 -1391.62588371 1478.28405777 -1391.62633896 1477.59326935 C-1391.63367878 1456.34596449 -1391.11926862 1435.40771448 -1388.375 1414.3125 C-1388.20641183 1412.95548046 -1388.038457 1411.5983821 -1387.87109375 1410.24121094 C-1380.94899102 1354.80632593 -1366.42767766 1299.28898633 -1343.375 1248.3125 C-1343.03017578 1247.54969727 -1342.68535156 1246.78689453 -1342.33007812 1246.00097656 C-1331.45770349 1222.33819629 -1316.41352813 1202.27350744 -1291.96875 1191.59375 C-1265.83837095 1182.27770182 -1234.39584631 1182.21381994 -1209.15625 1194.09472656 C-1193.17521169 1201.95853039 -1180.62725814 1213.17421792 -1174.375 1230.3125 C-1171.88317467 1238.63863359 -1171.13124799 1246.45903997 -1171.66699219 1255.06323242 C-1171.71459057 1255.88323573 -1171.76218895 1256.70323904 -1171.81122971 1257.54809093 C-1172.34841078 1266.03594282 -1173.3156667 1274.46325451 -1174.36560822 1282.90076256 C-1174.71577603 1285.71495366 -1175.05795347 1288.53002748 -1175.39837646 1291.34541321 C-1175.88510513 1295.36604837 -1176.37474915 1299.38631147 -1176.86669922 1303.40631104 C-1178.14847108 1313.89692704 -1179.39743597 1324.39146921 -1180.640625 1334.88671875 C-1180.76285934 1335.91859818 -1180.88509369 1336.9504776 -1181.0110321 1338.0136261 C-1183.81946698 1361.77119518 -1186.30245327 1385.53835553 -1188.14642334 1409.39245605 C-1188.37487601 1412.31091604 -1188.61525877 1415.22819714 -1188.85791016 1418.14550781 C-1191.16234121 1446.26846602 -1191.68072579 1474.35591011 -1191.74291611 1502.55848694 C-1191.74985563 1505.19514522 -1191.76150177 1507.83174705 -1191.77407837 1510.46838379 C-1191.84873885 1528.61777772 -1191.53584972 1546.65939485 -1190.0390625 1564.75390625 C-1189.98081676 1565.47516127 -1189.92257103 1566.19641628 -1189.86256027 1566.93952751 C-1189.14069126 1575.64064372 -1187.99861803 1584.18158744 -1186.35730934 1592.75943089 C-1185.73443094 1596.04069276 -1185.375 1598.95308012 -1185.375 1602.3125 C-1179.07586912 1597.35360973 -1174.29978792 1591.60080571 -1169.375 1585.3125 C-1168.86549805 1584.66732422 -1168.35599609 1584.02214844 -1167.83105469 1583.35742188 C-1150.75008039 1561.72084769 -1134.68635945 1539.36975789 -1119.43310547 1516.40844727 C-1117.32295236 1513.23420628 -1115.20168136 1510.06763123 -1113.078125 1506.90234375 C-1104.80692816 1494.55529819 -1096.63682986 1482.16257861 -1088.77392578 1469.54980469 C-1086.84260949 1466.46104684 -1084.8909437 1463.38534008 -1082.94018555 1460.30883789 C-1065.22905215 1432.3594896 -1048.05325203 1404.08514149 -1031.39723206 1375.4956665 C-1029.16821554 1371.66972234 -1026.93063141 1367.8489337 -1024.6875 1364.03125 C-1002.15811099 1325.64508007 -979.89501383 1286.65607354 -962.22094727 1245.75463867 C-950.9698534 1219.7556211 -937.22025576 1193.64301563 -909.37890625 1182.51464844 C-880.84095919 1172.12102952 -846.85279725 1172.06334099 -819 1184.5625 C-810.17993991 1189.31404752 -803.09269923 1196.51104237 -798.375 1205.3125 C-797.9625 1206.05113281 -797.55 1206.78976562 -797.125 1207.55078125 C-786.19816005 1231.3394224 -798.23130865 1269.25172033 -802.62182617 1293.96820068 C-817.33668052 1377.23699281 -826.54852435 1465.31228628 -787.375 1650.3125 C-781.25780296 1658.22092048 -773.56335783 1666.27482843 -763.375 1668.3125 C-746.61415204 1670.09142914 -732.25642023 1661.68684376 -719.4296875 1651.80859375 C-714.19698647 1647.53276772 -709.26431401 1642.97374105 -704.375 1638.3125 C-703.71757813 1637.69632813 -703.06015625 1637.08015625 -702.3828125 1636.4453125 C-697.22715997 1631.47973011 -692.81718019 1625.91287238 -688.375 1620.3125 C-687.61445312 1619.36890625 -686.85390625 1618.4253125 -686.0703125 1617.453125 C-674.62512003 1602.96838961 -664.53864748 1587.32917856 -655.375 1571.3125 C-654.99456543 1570.64782715 -654.61413086 1569.9831543 -654.22216797 1569.29833984 C-615.00497721 1500.39980978 -588.534718 1425.21128175 -566.375 1349.3125 C-566.09700058 1348.50508362 -565.81900116 1347.69766724 -565.53257751 1346.86578369 C-563.29295188 1339.8542111 -563.37935177 1335.05408376 -565.28515625 1328.0078125 C-565.5230336 1327.03642334 -565.76091095 1326.06503418 -566.0059967 1325.06420898 C-566.5233173 1322.95792703 -567.05192816 1320.85439234 -567.59063721 1318.753479 C-569.07139111 1312.9554337 -570.45037298 1307.13296984 -571.83984375 1301.3125 C-572.13379028 1300.08886749 -572.42773682 1298.86523499 -572.73059082 1297.60452271 C-587.32224894 1236.40792951 -596.66445212 1173.70430539 -604.375 1111.3125 C-604.50863953 1110.23135925 -604.64227905 1109.15021851 -604.77996826 1108.03631592 C-610.32565503 1062.93655254 -614.34523736 1017.71115175 -616.375 972.3125 C-616.415343 971.41811061 -616.455686 970.52372122 -616.49725151 969.60222912 C-617.23072545 953.01379314 -617.54881317 936.45516932 -617.578125 919.8515625 C-617.58510437 917.38317345 -617.59214533 914.91478458 -617.59924316 912.44639587 C-617.61685933 905.27910373 -617.62322955 898.11183774 -617.62456322 890.94452524 C-617.62500183 888.92908487 -617.62586741 886.91364501 -617.62678528 884.8982048 C-617.64101481 846.64925764 -617.52928517 808.50400136 -614.6060791 770.34619141 C-614.36901872 767.23397555 -614.14380514 764.12107205 -613.92089844 761.0078125 C-607.0115809 665.40949062 -591.76206595 570.78915112 -537.375 376.3125 C-537.14423767 375.65393005 -536.91347534 374.99536011 -536.67572021 374.3168335 C-515.66808282 314.49857013 -488.64816899 256.27961527 -455.25244141 202.36083984 C-453.61831058 199.70755539 -452.00936318 197.04232335 -450.41796875 194.36328125 C-433.81439139 166.47672807 -414.06866364 140.03336659 -392.97265625 115.37890625 C-390.64847258 112.65479014 -388.41576416 109.86580007 -386.1875 107.0625 C-375.78202128 94.34266787 -363.96758763 82.81282785 -352.375 71.1875 C-351.83875 70.64857117 -351.3025 70.10964233 -350.75 69.55438232 C-344.80509599 63.58693904 -338.7986815 57.76889559 -332.375 52.3125 C-331.17137312 51.25595782 -329.96953743 50.19737148 -328.76953125 49.13671875 C-320.86648229 42.19905258 -312.83562484 35.56620356 -304.375 29.3125 C-303.70098145 28.81250488 -303.02696289 28.31250977 -302.33251953 27.79736328 C-286.38376216 16.00696926 -269.93540097 5.30572953 -252.64355469 -4.41162109 C-251.20863661 -5.21864669 -249.77659445 -6.03082617 -248.34863281 -6.85009766 C-219.50740034 -23.35264031 -187.02101127 -34.05056177 -154.375 -39.6875 C-153.63008301 -39.81882324 -152.88516602 -39.95014648 -152.11767578 -40.08544922 C-99.55445523 -48.87268867 -40.13298721 -35.98550525 0 0 Z M-183.375 90.3125 C-184.35984375 91.07304687 -185.3446875 91.83359375 -186.359375 92.6171875 C-193.8856556 98.72010415 -200.75669254 105.48838201 -207.625 112.3125 C-208.54796875 113.22612305 -209.4709375 114.13974609 -210.421875 115.08105469 C-216.49831358 121.18586744 -222.03100715 127.56158518 -227.375 134.3125 C-228.50122944 135.7018818 -229.62752562 137.09120951 -230.75390625 138.48046875 C-249.83557595 162.41972052 -265.53999874 188.68371924 -279.93994141 215.63916016 C-281.28093156 218.13726192 -282.64336898 220.6222816 -284.01171875 223.10546875 C-293.21136105 239.99562568 -300.7529665 257.67184781 -308.375 275.3125 C-308.65664001 275.96172424 -308.93828003 276.61094849 -309.22845459 277.27984619 C-348.55286392 367.94189918 -371.97814893 465.50502274 -421.375 938.3125 C-417.33534448 935.9696522 -414.14942942 933.40367177 -410.75 930.1875 C-406.98046221 926.65891607 -403.17083485 923.27716636 -399.125 920.0625 C-393.5557852 915.58449565 -388.38316621 910.72866434 -383.20800781 905.80371094 C-379.29629937 902.08512462 -375.31536707 898.47535662 -371.23901367 894.93798828 C-368.65986594 892.68887687 -366.14232639 890.38071583 -363.625 888.0625 C-362.58338599 887.10410943 -361.54171783 886.14577771 -360.5 885.1875 C-359.97921875 884.70796875 -359.4584375 884.2284375 -358.921875 883.734375 C-356.49543855 881.50401422 -354.05887706 879.28473558 -351.625 877.0625 C-341.22415316 867.53315507 -330.84643237 857.98054901 -321 847.875 C-318.9789235 845.90204437 -316.94770332 844.0698427 -314.80493164 842.23803711 C-309.95500169 838.007762 -305.41470993 833.49605602 -300.87109375 828.94140625 C-299.9889772 828.06024643 -299.10686066 827.17908661 -298.19801331 826.27122498 C-295.87267191 823.9467325 -293.54976382 821.61984093 -291.22766113 819.29211426 C-289.81355176 817.87605322 -288.39750879 816.46195679 -286.98071289 815.04858398 C-284.2331328 812.30721744 -281.48907894 809.56236966 -278.74609375 806.81640625 C-277.91049423 805.98283096 -277.07489471 805.14925568 -276.213974 804.29042053 C-271.94580843 800.00532113 -267.82266061 795.65726582 -263.89723206 791.05491638 C-260.87909373 787.60021731 -257.55090773 784.44763139 -254.26953125 781.24609375 C-250.72821765 777.75622781 -247.42427348 774.12682396 -244.17382812 770.36523438 C-240.55934174 766.24055991 -236.75149232 762.29345684 -232.98046875 758.3125 C-226.59589085 751.54458305 -220.53275393 744.51819233 -214.5 737.4375 C-210.95098667 733.28043311 -207.36825978 729.16674498 -203.6875 725.125 C-199.53183735 720.53892943 -195.61935299 715.78547659 -191.72802734 710.97460938 C-190.18916884 709.08421805 -188.63665405 707.20557293 -187.08203125 705.328125 C-180.21583837 697.03562152 -173.44037098 688.68774638 -166.83496094 680.18603516 C-165.24316876 678.14332393 -163.64150696 676.10858278 -162.0390625 674.07421875 C-154.43592046 664.39701152 -147.11807396 654.55374187 -139.97070312 644.53613281 C-138.40548314 642.35497865 -136.8233872 640.18730405 -135.234375 638.0234375 C-80.94035993 563.93962305 -34.59729033 479.13710668 -4.375 327.3125 C-4.30442383 326.58853027 -4.23384766 325.86456055 -4.16113281 325.11865234 C-3.72602536 320.52009606 -3.50888668 315.92770964 -3.375 311.3125 C-3.34245117 310.4054834 -3.30990234 309.4984668 -3.27636719 308.56396484 C-1.0204116 237.3418517 -10.16049468 142.04332674 -61.0390625 87.68359375 C-75.71358252 72.78821975 -92.32837029 62.43667933 -113.8125 62.0625 C-139.52548283 62.38271149 -163.49050264 74.82945652 -183.375 90.3125 Z M503.625 253.3125 C503.03025879 253.84552734 502.43551758 254.37855469 501.82275391 254.92773438 C495.00969173 261.06858392 488.48487531 267.24284398 482.625 274.3125 C481.74064699 275.32628732 480.85368009 276.33779738 479.96484375 277.34765625 C423.73006465 341.4997003 391.87352745 425.13901718 310.625 885.3125 C310.56441406 886.46093384 310.50382812 887.60936768 310.44140625 888.79260254 C307.84007231 938.41124088 307.39635778 988.06824461 310.24877167 1037.67854691 C310.33176556 1039.12269335 310.41382904 1040.56689361 310.49488068 1042.01115036 C311.39608286 1058.06882584 312.68139037 1074.05608753 314.578125 1090.02734375 C314.65715813 1090.70695223 314.73619125 1091.38656071 314.81761932 1092.08676338 C315.86567765 1100.98932683 317.42344662 1109.62225152 319.625 1118.3125 C328.05951776 1111.16149581 336.21940396 1103.7207969 344.3125 1096.1875 C344.92996094 1095.61386719 345.54742188 1095.04023437 346.18359375 1094.44921875 C349.20758104 1091.62553831 352.17906231 1088.76849902 355.08203125 1085.8203125 C357.3144564 1083.56784187 359.59642097 1081.45522292 362.02001953 1079.41137695 C368.25253302 1073.9851753 374.01297996 1068.06832044 379.84765625 1062.22265625 C381.11968167 1060.95130593 382.39185539 1059.68010396 383.66416931 1058.40904236 C386.31916228 1055.75551665 388.97235643 1053.10020906 391.62426758 1050.44360352 C395.00533978 1047.05683465 398.39088258 1043.67457607 401.77779484 1040.29364872 C404.40230568 1037.67276982 407.02440744 1035.04949108 409.64581108 1032.42550468 C410.89247921 1031.17817456 412.13987648 1029.93157269 413.38804817 1028.68574715 C422.11280573 1019.985172 422.11280573 1019.985172 430.34031677 1010.81736755 C432.00010206 1008.87310848 433.78671244 1007.08739833 435.625 1005.3125 C438.72746002 1002.25132747 441.60606424 999.08107732 444.4453125 995.77734375 C447.43843907 992.39264328 450.53343154 989.1071642 453.625 985.8125 C458.39038976 980.72545881 463.10086095 975.61666302 467.625 970.3125 C468.49977272 969.2914719 469.37479699 968.27065929 470.25 967.25 C471.76708897 965.4804412 473.28376383 963.71053703 474.79907227 961.93945312 C478.57638041 957.52646448 482.37778761 953.13501973 486.1875 948.75 C494.44247241 939.23181117 502.62403443 929.69538432 510.36206055 919.74926758 C513.32976743 915.93977684 516.35173465 912.18132827 519.4140625 908.44750977 C525.83251111 900.62122313 531.97544148 892.63035036 537.99902344 884.49755859 C539.75156031 882.14242271 541.51875557 879.79883643 543.2890625 877.45703125 C550.77986015 867.54056893 558.09500483 857.52965125 565.20410156 847.33642578 C566.5780502 845.37937523 567.96891085 843.43581585 569.3671875 841.49609375 C621.21193678 769.36347968 664.38411232 689.54084746 727.8125 356.1875 C719.45358544 307.66368911 700.80620845 257.08288501 659.47802734 227.19042969 C648.82690324 219.79764642 637.23974925 214.38138906 624.625 211.3125 C623.71105469 211.08820313 622.79710938 210.86390625 621.85546875 210.6328125 C577.96041389 201.66962647 535.26427107 224.91561613 503.625 253.3125 Z M1980.625 1472.3125 C1979.02086621 1474.40404367 1977.56203916 1476.48376545 1976.125 1478.6875 C1975.68067627 1479.36522461 1975.23635254 1480.04294922 1974.77856445 1480.74121094 C1938.17796143 1537.37562436 1915.50699675 1610.42457407 1929.14501953 1677.88476562 C1932.10632033 1691.12725822 1936.94093521 1707.74159051 1948.9375 1715.4375 C1953.28758092 1716.46972259 1954.72277741 1716.07544423 1958.4609375 1713.8671875 C1989.32652776 1691.69299088 2004.30566106 1653.82754384 2010.26538086 1617.57348633 C2010.38405518 1616.82736084 2010.50272949 1616.08123535 2010.625 1615.3125 C2010.81835938 1614.11625 2011.01171875 1612.92 2011.2109375 1611.6875 C2016.79879233 1563.81801147 2002.44072188 1515.33290028 1982.625 1472.3125 C1981.965 1472.3125 1981.305 1472.3125 1980.625 1472.3125 Z " fill="#80C341" transform="translate(2364.375,379.6875)"/>
<path d="M0 0 C1.20822418 0.00060425 2.41644836 0.0012085 3.6612854 0.00183105 C92.03372637 0.12057716 181.11774788 10.84802649 487 148.1875 C488.03073806 149.04488666 489.0620156 149.90162505 490.09375 150.7578125 C501.96666709 160.64834142 513.11596255 171.20395392 524.0748291 182.08709717 C525.17479046 183.17900299 526.27622663 184.26942554 527.37927246 185.35821533 C533.60654631 191.51352092 539.46388198 197.75238146 544.92382812 204.61499023 C546.91351622 207.08034106 548.98150268 209.43491817 551.109375 211.78125 C555.09758727 216.22311648 558.69945411 220.8919575 562.25 225.6875 C562.89622314 226.55697266 563.54244629 227.42644531 564.20825195 228.32226562 C566.14606313 230.93877591 568.07470238 233.56177233 570 236.1875 C570.54769043 236.93128906 571.09538086 237.67507813 571.65966797 238.44140625 C579.84097217 249.59983182 587.09061242 261.20436748 594 273.1875 C594.43554199 273.94144043 594.87108398 274.69538086 595.31982422 275.47216797 C644.75539171 361.55201617 662.634214 461.39514444 637.09521484 558.21337891 C623.43321879 608.59013756 599.46539293 657.22162295 567.37744141 698.41308594 C566.04305767 700.1320333 564.72763031 701.86373267 563.41796875 703.6015625 C558.47088572 710.14672554 553.32652371 716.49048376 547.9753418 722.70947266 C546.09807346 724.89638737 544.23831605 727.09576647 542.39697266 729.31298828 C534.99261074 738.17436766 527.06162489 746.40513234 518.86230469 754.53100586 C516.73305061 756.64180246 514.61210919 758.76069401 512.4921875 760.88085938 C511.11505672 762.25307941 509.73746884 763.6248409 508.359375 764.99609375 C507.738349 765.61600693 507.117323 766.2359201 506.47747803 766.87461853 C502.13941656 771.16665484 497.62368211 775.20656928 493 779.1875 C491.91702749 780.13694827 490.83482507 781.08727681 489.75390625 782.0390625 C481.47407208 789.2604171 472.89272346 796.00296682 464.10839844 802.59814453 C462.09662211 804.1146642 460.0975154 805.64633495 458.1015625 807.18359375 C434.51061377 825.26429165 408.95875993 840.7709491 383 855.1875 C381.52152588 856.00903564 381.52152588 856.00903564 380.01318359 856.84716797 C331.54153355 883.64841949 280.38777173 904.41176499 228 922.1875 C227.17042786 922.46960327 226.34085571 922.75170654 225.48614502 923.0423584 C189.16330398 935.37545616 152.40855556 946.05732072 115.3125 955.80859375 C114.20195755 956.10088867 113.0914151 956.39318359 111.94721985 956.69433594 C106.67974923 958.07838905 101.40973535 959.45083178 96.13354492 960.80126953 C68.14397418 967.67832045 68.14397418 967.67832045 47 986.1875 C42.16150297 995.06385742 42.41936937 1004.40365483 42.38607788 1014.21966553 C42.36694872 1019.02071728 42.27748214 1023.82070672 42.19921875 1028.62109375 C42.18496353 1029.59616882 42.17070831 1030.5712439 42.15602112 1031.5758667 C40.94451612 1110.18089684 26.26843682 1187.16841674 -48 1366.1875 C-48.62358398 1367.28787598 -49.24716797 1368.38825195 -49.88964844 1369.52197266 C-62.9883295 1392.57182396 -77.24159051 1414.85182371 -93 1436.1875 C-93.44972168 1436.80028809 -93.89944336 1437.41307617 -94.36279297 1438.04443359 C-101.47895074 1447.72731088 -108.89743466 1457.12660706 -116.53515625 1466.40234375 C-117.85518719 1468.01102146 -119.1627558 1469.62990593 -120.46875 1471.25 C-125.02413542 1476.89611151 -129.76843232 1482.3130434 -134.6796875 1487.65234375 C-136.57281203 1489.72075758 -138.42251704 1491.81155876 -140.25 1493.9375 C-148.8638798 1503.81341336 -157.9674242 1513.25473594 -167.1875 1522.5625 C-167.9182373 1523.3062085 -168.64897461 1524.04991699 -169.40185547 1524.81616211 C-170.08779785 1525.50331299 -170.77374023 1526.19046387 -171.48046875 1526.8984375 C-172.08785889 1527.50993652 -172.69524902 1528.12143555 -173.32104492 1528.75146484 C-175 1530.1875 -175 1530.1875 -178 1531.1875 C-185.67023067 1522.52435921 -187.62906656 1513.52953802 -187.26708984 1502.08959961 C-186.4364841 1489.95470786 -183.08911755 1478.55940051 -179.27432251 1467.08877563 C-161.29371752 1412.77987938 -149.5579081 1356.76641798 -143.25 1299.9375 C-143.09815247 1298.59103897 -143.09815247 1298.59103897 -142.9432373 1297.21737671 C-139.70610146 1268.14761628 -138.61195868 1239.10228727 -138.6875 1209.875 C-138.6897273 1208.33966072 -138.69190356 1206.80432136 -138.69403076 1205.26898193 C-138.74211699 1180.15071059 -139.39976052 1155.18739282 -142 1130.1875 C-142.14565399 1128.78026672 -142.14565399 1128.78026672 -142.29425049 1127.34460449 C-151.38182248 1040.6783964 -172.78108118 955.60935151 -217 859.1875 C-217.29519531 858.57861938 -217.59039063 857.96973877 -217.89453125 857.34240723 C-240.98634458 809.74317872 -268.79167885 764.44049452 -302 723.1875 C-302.51030762 722.55102539 -303.02061523 721.91455078 -303.54638672 721.25878906 C-313.83654457 708.43754647 -324.39255061 695.90073784 -335.56640625 683.83984375 C-337.51208077 681.71927714 -339.39304378 679.57216194 -341.25 677.375 C-345.53381492 672.39308191 -350.30991835 667.86162342 -355.02246094 663.28979492 C-355.66344727 662.66049072 -356.30443359 662.03118652 -356.96484375 661.3828125 C-357.84064087 660.53227295 -357.84064087 660.53227295 -358.73413086 659.66455078 C-360 658.1875 -360 658.1875 -360 656.1875 C-360.85803223 655.81951294 -360.85803223 655.81951294 -361.73339844 655.4440918 C-364.38736797 653.97274527 -366.14499183 652.25197599 -368.265625 650.08203125 C-369.07386719 649.26283203 -369.88210938 648.44363281 -370.71484375 647.59960938 C-371.55144531 646.74173828 -372.38804687 645.88386719 -373.25 645 C-378.98265543 639.14585188 -384.7727511 633.5127689 -391 628.1875 C-392.60768373 626.73304483 -394.21239715 625.27529105 -395.8125 623.8125 C-400.13125657 619.91508553 -404.57762051 616.21449645 -409.1015625 612.55859375 C-411.62928052 610.49077052 -414.11390685 608.38128901 -416.58789062 606.24975586 C-423.81777928 600.03615649 -431.35759903 594.31787729 -439.02636719 588.65966797 C-440.84050193 587.30647246 -442.63097681 585.92887425 -444.4140625 584.53515625 C-471.73335427 563.3219848 -501.78921897 544.93642983 -532 528.1875 C-533.04510742 527.60742188 -534.09021484 527.02734375 -535.16699219 526.4296875 C-605.4000598 487.65195854 -682.84200769 460.19770723 -788.94873047 443.77197266 C-802.95099311 441.77090979 -816.26277967 439.39533027 -826 428.1875 C-828.08344819 424.95179107 -828.32552679 422.25683197 -828.375 418.4375 C-828.40335938 417.45265625 -828.43171875 416.4678125 -828.4609375 415.453125 C-827.42024716 408.08009853 -822.77049903 402.10049866 -818.5 396.1875 C-817.71713623 395.09163574 -817.71713623 395.09163574 -816.91845703 393.97363281 C-811.40172464 386.28624725 -805.73014999 378.71658176 -800 371.1875 C-799.55382324 370.59952637 -799.10764648 370.01155273 -798.64794922 369.40576172 C-790.76034815 359.02145079 -782.53094696 348.94436803 -774.07739258 339.0168457 C-771.24193779 335.68098757 -768.48025541 332.29808338 -765.75 328.875 C-761.30646967 323.40849866 -756.51697547 318.29989653 -751.66699219 313.19604492 C-748.3922717 309.7498708 -745.18047444 306.26806783 -742.03515625 302.703125 C-735.97122152 295.93920718 -729.51998162 289.55799802 -723.08862305 283.14575195 C-720.93487478 280.99738134 -718.78654774 278.84369306 -716.63867188 276.68945312 C-715.24771646 275.29915832 -713.85645097 273.90917364 -712.46484375 272.51953125 C-711.83440659 271.88706985 -711.20396942 271.25460846 -710.5544281 270.60298157 C-706.76261275 266.83072792 -702.85764456 263.24267953 -698.80380249 259.75318909 C-696.03014677 257.34567357 -693.36587217 254.82476829 -690.6875 252.3125 C-685.8935086 247.85245644 -680.97489004 243.62440447 -675.8671875 239.5234375 C-672.58420303 236.84874443 -669.38760296 234.08515875 -666.1875 231.3125 C-659.95489412 225.94032168 -653.57841427 220.79436277 -647.05957031 215.77441406 C-645.58539594 214.63855188 -644.11366487 213.49951588 -642.64355469 212.35839844 C-631.83735331 203.97492485 -620.89857078 195.9082246 -609.55078125 188.2734375 C-605.83423709 185.77047489 -602.18193748 183.18975472 -598.54370117 180.57470703 C-589.98932209 174.43284729 -581.16699374 168.89161636 -572.13623047 163.48144531 C-569.52436027 161.89939822 -566.94768827 160.2662367 -564.37182617 158.62646484 C-483.39853939 107.19306108 -392.3737111 69.31235759 -53 1.1875 C-52.10625671 1.14619965 -51.21251343 1.10489929 -50.29168701 1.06234741 C-33.52467904 0.30297143 -16.78349387 -0.0157634 0 0 Z M-508.0625 215.75 C-509.62339355 216.25950195 -509.62339355 216.25950195 -511.21582031 216.77929688 C-519.1767472 219.52515733 -528.4931357 223.27503484 -533.6875 230.25 C-535.2667478 233.78450698 -535.74999528 235.36252405 -535 239.1875 C-528.40712454 254.12943173 -510.12827772 261.71664526 -496.796875 269.2890625 C-476.89982629 280.62914582 -457.92929358 293.4545443 -438.92729187 306.21336365 C-434.7489099 309.01825967 -430.56248892 311.81031209 -426.3671875 314.58984375 C-406.60205483 327.68649701 -387.14026737 341.19309919 -368 355.1875 C-367.2270459 355.75178711 -366.4540918 356.31607422 -365.65771484 356.89746094 C-354.32387656 365.18014773 -343.10847615 373.60515692 -332 382.1875 C-331.2373584 382.77595703 -330.4747168 383.36441406 -329.68896484 383.97070312 C-320.68810801 390.92160227 -311.76039743 397.93515221 -303 405.1875 C-301.20875392 406.6463499 -299.41707644 408.10467024 -297.625 409.5625 C-292.98449967 413.35686921 -288.40377866 417.21683454 -283.83862305 421.10107422 C-280.40996727 424.01291617 -276.94048327 426.86495233 -273.4375 429.6875 C-268.36680449 433.8120599 -263.56807521 438.18366599 -258.77734375 442.625 C-255.88366523 445.29483559 -252.93613472 447.8902459 -249.96484375 450.47265625 C-237.72586247 461.1543914 -225.84372497 472.23970125 -214.42578125 483.79296875 C-211.66278912 486.52036677 -208.77785457 489.05618274 -205.83203125 491.58203125 C-201.54292151 495.34071804 -197.631351 499.40972508 -193.9375 503.75 C-190.48605327 507.76494823 -186.76037149 511.46589522 -183 515.1875 C-178.78382496 519.36481376 -174.66438952 523.54435783 -170.828125 528.078125 C-168.83818523 530.37420935 -166.77695772 532.59114801 -164.70288086 534.81103516 C-159.63165974 540.23927401 -154.80189843 545.77448571 -150.1484375 551.5703125 C-147.98488228 554.20591613 -145.7361044 556.73173375 -143.4375 559.25 C-139.0632693 564.06240925 -135.00922336 569.06949875 -131 574.1875 C-130.21367188 575.17878906 -129.42734375 576.17007812 -128.6171875 577.19140625 C-97.13363868 616.92821535 -68.48688807 658.76779461 -44 703.1875 C-43.41492676 704.24259766 -42.82985352 705.29769531 -42.22705078 706.38476562 C-5.82275921 772.24708513 20.10092303 843.27240319 34.37133789 917.16699219 C34.94478717 920.21567009 34.94478717 920.21567009 36 923.1875 C46.70519775 920.67039881 57.11519607 917.68938684 67.5 914.0625 C68.18732208 913.8241745 68.87464417 913.585849 69.58279419 913.34030151 C91.40805873 905.7546817 112.32066703 896.48262849 133 886.1875 C133.89783203 885.74325684 134.79566406 885.29901367 135.72070312 884.84130859 C163.18790429 871.16428839 188.96711098 854.23306247 213 835.1875 C213.84304688 834.52621094 214.68609375 833.86492188 215.5546875 833.18359375 C226.17121859 824.7887329 236.41519873 815.98666261 246.31347656 806.75634766 C248.20015029 805.00131503 250.09627692 803.25676709 251.9921875 801.51171875 C258.53198177 795.46781495 264.94911937 789.43641416 270.796875 782.70703125 C272.96131124 780.23174513 275.18539569 777.82758772 277.43212891 775.42749023 C283.23222534 769.22187476 288.73123846 762.85512192 294 756.1875 C294.50225098 755.55779297 295.00450195 754.92808594 295.52197266 754.27929688 C335.83043807 703.67652305 369.50107978 643.41492421 377 578.1875 C377.0928125 577.39577393 377.185625 576.60404785 377.28125 575.78833008 C378.14333896 567.53921635 378.24321568 559.28607024 378.25 551 C378.25067474 550.25383423 378.25134949 549.50766846 378.25204468 548.7388916 C378.20048872 512.6034627 369.44130696 478.17615514 355 445.1875 C354.64566895 444.3742627 354.29133789 443.56102539 353.92626953 442.72314453 C338.55637985 407.86323157 315.56961487 377.17586222 290 349.1875 C289.10395069 348.19811222 288.20812723 347.20851987 287.3125 346.21875 C279.94869576 338.10327494 272.47310411 330.18587655 264.140625 323.05078125 C261.66813514 320.89863223 259.27728643 318.66769281 256.875 316.4375 C251.11552936 311.19226781 245.07387164 306.39252805 238.89648438 301.65136719 C236.9768524 300.16963272 235.07358806 298.66870403 233.171875 297.1640625 C207.09174677 276.67527336 178.33730176 259.56429265 149 244.1875 C147.61192139 243.45950195 147.61192139 243.45950195 146.19580078 242.71679688 C68.32248164 202.18475557 -18.81328065 179.18222605 -508.0625 215.75 Z " fill="#80C240" transform="translate(828,576.8125)"/>
<path d="M0 0 C2.11820205 7.0073854 3.6400841 13.68171002 4 21 C4.07927734 22.37478516 4.07927734 22.37478516 4.16015625 23.77734375 C5.28605779 61.81323499 -12.70703226 97.06923957 -28.66064453 130.47753906 C-45.09129841 164.95018891 -62.44410338 205.61354693 -49 244 C-48.649375 245.03640625 -48.29875 246.0728125 -47.9375 247.140625 C-41.56888274 264.03515134 -30.06528392 279.18691634 -13.90625 287.61328125 C0.32348798 293.82962297 13.80725259 294.37693744 28.62109375 289.33203125 C48.38929768 281.53901675 65.78447912 268.88246949 83.3359375 257.11328125 C169.18871422 199.65058261 263.48302248 137.34498394 368 123 C369.2885791 122.82267334 370.5771582 122.64534668 371.90478516 122.46264648 C383.98293075 120.90823091 395.958495 120.64312377 408.125 120.6875 C409.60419922 120.68923721 409.60419922 120.68923721 411.11328125 120.69100952 C430.42840183 120.73582918 449.28165741 121.84514394 468 127 C466.592871 131.19128797 464.5999288 133.88420515 461.6875 137.1875 C451.03883794 149.57999897 441.82299181 163.26527293 433 177 C432.51063965 177.76086914 432.0212793 178.52173828 431.51708984 179.30566406 C422.64967674 193.1742871 414.63352724 207.41981684 407 222 C406.52852539 222.89235352 406.05705078 223.78470703 405.57128906 224.70410156 C379.93488282 273.44784345 354.84846892 334.01393087 370.87890625 389.50390625 C376.56212844 407.22684652 386.52062229 421.53905468 403.265625 430.234375 C428.67284996 442.60955903 458.25910761 435.35131125 483.64208984 426.76953125 C522.91812021 412.99274237 559.08990399 391.90239021 590 364 C590.6079541 363.45375977 591.2159082 362.90751953 591.84228516 362.34472656 C603.35022948 351.95408716 614.65702962 341.11046509 623.73046875 328.4765625 C624.14941406 327.98929687 624.56835938 327.50203125 625 327 C625.66 327 626.32 327 627 327 C627.88337478 412.05770746 619.28182915 495.02645052 515 773 C514.36803711 774.08700195 513.73607422 775.17400391 513.08496094 776.29394531 C506.13954912 788.22023869 499.0881667 800.0759017 491.625 811.6875 C491.08359375 812.53723389 490.5421875 813.38696777 489.984375 814.26245117 C489.23800781 815.40677612 489.23800781 815.40677612 488.4765625 816.57421875 C488.04424316 817.24026123 487.61192383 817.90630371 487.16650391 818.5925293 C486.58908447 819.28922729 486.58908447 819.28922729 486 820 C485.34 820 484.68 820 484 820 C482.1710182 817.57567848 480.45039231 815.13774429 478.75 812.625 C469.35072883 799.03021635 459.1529639 786.08012471 448.35205078 773.57421875 C446.96125884 771.95489292 445.58671228 770.32287783 444.21484375 768.6875 C433.10469716 755.49101188 421.16898661 743.09397169 409 730.875 C408.22325928 730.09358643 407.44651855 729.31217285 406.64624023 728.50708008 C402.48857452 724.36103419 398.24498415 720.38135086 393.79541016 716.55029297 C391.37656823 714.46168184 389.03479219 712.29341611 386.6875 710.125 C382.27646827 706.10619407 377.76264642 702.27134676 373.1171875 698.52734375 C370.78762058 696.64952084 368.48742603 694.73975883 366.1953125 692.81640625 C355.7750284 684.09474581 345.04318977 675.91575843 334 668 C333.19691406 667.4225 332.39382813 666.845 331.56640625 666.25 C271.66557324 623.3130829 204.92221027 589.99553287 135.27246094 566.12207031 C132.02348202 565.00805158 128.78142408 563.87529722 125.5390625 562.7421875 C45.79674181 535.1977786 -39.45901914 521.10272769 -531 578 C-532.00639526 578.30981812 -533.01279053 578.61963623 -534.04968262 578.93884277 C-620.25654554 605.54069225 -704.94712266 638.33027654 -786.625 676.69824219 C-788.3884375 677.52437012 -788.3884375 677.52437012 -790.1875 678.3671875 C-791.25355469 678.8710498 -792.31960938 679.37491211 -793.41796875 679.89404297 C-796 681 -796 681 -798 681 C-798.18124446 674.60773739 -797.4958715 668.62293803 -796.48828125 662.31640625 C-796.32424301 661.26260269 -796.16020477 660.20879913 -795.99119568 659.12306213 C-795.43950347 655.60158091 -794.87696264 652.0819557 -794.3125 648.5625 C-794.11603882 647.32828308 -793.91957764 646.09406616 -793.71716309 644.82244873 C-783.47226526 580.6025139 -772.18254544 516.28847425 -758 452.8125 C-757.82795044 452.0362326 -757.65590088 451.25996521 -757.4786377 450.46017456 C-754.31113906 436.2656525 -750.627974 422.32744989 -744.125 409.25 C-743.65940674 408.29738281 -743.19381348 407.34476562 -742.71411133 406.36328125 C-721.55840664 363.53512286 -696.39592711 322.83016849 -664.18359375 287.40234375 C-662.68778196 285.75668319 -661.20122468 284.10257661 -659.72265625 282.44140625 C-652.58158481 274.42143371 -645.16687631 266.97036632 -637 260 C-636.08863281 259.19949219 -635.17726563 258.39898437 -634.23828125 257.57421875 C-598.02113771 226 -598.02113771 226 -587 226 C-589.2440585 242.63617926 -591.97358723 259.18424187 -594.76189232 275.73571777 C-595.55912544 280.46815461 -596.35205735 285.20130644 -597.1443634 289.93457031 C-599.25190447 302.52119683 -601.36489096 315.10690785 -603.4804433 327.69219017 C-604.87838109 336.00858702 -606.27400076 344.32536539 -607.66522008 352.64288902 C-608.45211006 357.34621527 -609.24269977 362.04889963 -610.03610456 366.75113106 C-610.52705762 369.66593065 -611.01462568 372.5812889 -611.5012455 375.49681473 C-611.8348351 377.48925421 -612.17248431 379.48101267 -612.51025391 381.4727478 C-612.70785812 382.66091095 -612.90546234 383.8490741 -613.10905457 385.07324219 C-613.28214236 386.10326355 -613.45523016 387.13328491 -613.63356304 388.19451904 C-613.97856515 390.83589244 -614.06954652 393.34026889 -614 396 C-608.45714441 391.04521261 -602.95546707 386.05061314 -597.5 381 C-592.87651005 376.72021144 -588.21907605 372.48241338 -583.52734375 368.27734375 C-580.66917816 365.70190242 -577.83287917 363.10316201 -575 360.5 C-571.37256511 357.16671251 -567.73106924 353.85053693 -564.0625 350.5625 C-560.17629402 347.07551903 -556.33157193 343.54668015 -552.5 340 C-547.87647389 335.72025045 -543.21907665 331.48241392 -538.52734375 327.27734375 C-535.66917797 324.70190225 -532.83289739 322.10314236 -530 319.5 C-525.54938022 315.41079455 -521.06921883 311.35630885 -516.5703125 307.3203125 C-513.65571526 304.68920193 -510.76462591 302.03345583 -507.875 299.375 C-504.00637105 295.81741659 -500.09665736 292.31710305 -496.125 288.875 C-493.38176169 286.45449561 -490.69133086 283.97780585 -488 281.5 C-482.35335861 276.30721547 -476.62274881 271.23450757 -470.78515625 266.2578125 C-469.58578591 265.23455265 -468.38657183 264.21110963 -467.1875 263.1875 C-466.58139893 262.67026367 -465.97529785 262.15302734 -465.35083008 261.62011719 C-461.60948459 258.4151062 -457.9389307 255.14798497 -454.3125 251.8125 C-449.92644354 247.78606164 -445.38258372 244.01890278 -440.75 240.28125 C-437.91900422 237.93281032 -435.20616402 235.49090098 -432.5 233 C-428.11105254 228.96489979 -423.59137234 225.16169696 -418.953125 221.41796875 C-415.56641218 218.64498564 -412.25058257 215.79760291 -408.9375 212.9375 C-404.27359584 208.91922281 -399.56293443 204.9873944 -394.73046875 201.171875 C-392.61495235 199.48914665 -390.51620175 197.79160237 -388.42578125 196.078125 C-380.1840403 189.32516161 -371.83027001 182.75473734 -363.34375 176.3125 C-359.65935279 173.51262414 -356.009209 170.67137706 -352.36645508 167.81762695 C-331.83033579 151.73722595 -310.5675575 136.65954381 -289 122 C-288.40574219 121.59604004 -287.81148437 121.19208008 -287.19921875 120.77587891 C-268.56682856 108.14943932 -249.48194075 96.26761734 -230 85 C-229.09733398 84.47583496 -228.19466797 83.95166992 -227.26464844 83.41162109 C-165.349319 47.55719715 -73.39699191 -3.26208853 0 0 Z " fill="#EE2F30" transform="translate(1017,0)"/>
<path d="M0 0 C4.53088247 1.57829318 6.80316993 5.1537981 9.625 8.8125 C10.15569092 9.48901611 10.68638184 10.16553223 11.2331543 10.86254883 C12.82978647 12.90251724 14.41575769 14.95040241 16 17 C16.82652482 18.06012831 17.65332237 19.12004408 18.48046875 20.1796875 C23.48583006 26.63551364 28.4004393 33.16053248 33.3125 39.6875 C34.1638855 40.8161145 34.1638855 40.8161145 35.0324707 41.9675293 C46.1289782 56.75623381 56.72517938 71.8392482 66.9375 87.25 C67.50271362 88.10095245 68.06792725 88.95190491 68.65026855 89.8286438 C82.40227853 110.53445917 95.72345759 131.37565416 108 153 C108.94746094 154.66844971 108.94746094 154.66844971 109.9140625 156.37060547 C132.72188308 196.72159283 152.18335085 238.42121708 168 282 C168.25845703 282.71113953 168.51691406 283.42227905 168.78320312 284.15496826 C176.76505748 306.17784494 183.51590863 328.42339609 189.48760986 351.07019043 C190.23549082 353.88692661 191.00840043 356.69676466 191.77734375 359.5078125 C212.73220809 437.64459477 211.93236271 532.68874778 173 605 C172.07960938 606.74990234 172.07960938 606.74990234 171.140625 608.53515625 C163.34056836 622.82988814 153.27147644 635.30715995 142 647 C141.33742188 647.71414063 140.67484375 648.42828125 139.9921875 649.1640625 C114.364709 676.07827632 75.91109403 690.95252165 39.1953125 692.12109375 C-10.50839762 693.14872565 -55.10163744 671.22934849 -90.51904297 637.42236328 C-91.2521167 636.71829346 -91.2521167 636.71829346 -92 636 C-92.50805176 635.5138623 -93.01610352 635.02772461 -93.53955078 634.52685547 C-100.58068575 627.75050778 -106.95795654 620.69554589 -113 613 C-113.86958999 611.93106658 -114.74074968 610.86340867 -115.61328125 609.796875 C-157.82108086 557.79554101 -174.18927831 491.89058651 -167.8125 425.8125 C-162.05696631 371.87870063 -142.16421736 322.41290089 -118.52587891 274.1328125 C-116.62104008 270.2219498 -114.75479404 266.29350612 -112.89135742 262.36279297 C-103.91104758 243.43864198 -94.67966074 224.63800953 -84.54370117 206.30322266 C-79.277589 196.7587761 -74.29710516 187.070394 -69.30078125 177.3828125 C-66.97098715 172.86671889 -64.61477122 168.36643964 -62.2277832 163.88037109 C-34.66852979 112.01839452 -11.33009691 57.92114964 0 0 Z " fill="#EE2F30" transform="translate(433,1274)"/>
</svg>
